<svg width="41" height="41" viewBox="0 0 41 41" fill="none" xmlns="http://www.w3.org/2000/svg">
<path id="Vector" fill-rule="evenodd" clip-rule="evenodd" d="M20.6836 40.5C31.7293 40.5 40.6836 31.5457 40.6836 20.5C40.6836 9.45431 31.7293 0.5 20.6836 0.5C9.63788 0.5 0.683594 9.45431 0.683594 20.5C0.683594 31.5457 9.63788 40.5 20.6836 40.5ZM26.9229 9.81684C27.2266 8.73805 26.1797 8.10013 25.2236 8.7813L11.8767 18.2896C10.8398 19.0283 11.0029 20.5 12.1217 20.5H15.6363V20.4728H22.4861L16.9048 22.4421L14.4443 31.1832C14.1406 32.262 15.1874 32.8999 16.1436 32.2187L29.4905 22.7105C30.5274 21.9718 30.3642 20.5 29.2455 20.5H23.9157L26.9229 9.81684Z" fill="#A8FF35"/>
</svg>
